<?xml version="1.0" standalone="no"?>
<!DOCTYPE svg PUBLIC "-//W3C//DTD SVG 20010904//EN"
 "http://www.w3.org/TR/2001/REC-SVG-20010904/DTD/svg10.dtd">
<svg version="1.0" xmlns="http://www.w3.org/2000/svg"
 width="500.000000pt" height="500.000000pt" viewBox="0 0 500.000000 500.000000"
 preserveAspectRatio="xMidYMid meet">
<metadata>
Created by potrace 1.14, written by Peter Selinger 2001-2017
</metadata>
<g transform="translate(0.000000,500.000000) scale(0.100000,-0.100000)"
fill="#000000" stroke="none">
<path d="M2407 4424 c-1 -1 -40 -5 -87 -10 -121 -11 -135 -12 -135 -14 0 -2
-14 -5 -60 -13 -61 -12 -91 -18 -130 -29 -22 -5 -47 -12 -55 -13 -8 -2 -32
-11 -52 -19 -21 -9 -41 -17 -45 -17 -11 -2 -36 -12 -113 -44 -281 -118 -574
-350 -766 -605 -27 -36 -52 -67 -56 -68 -5 -2 -6 -8 -2 -13 3 -5 -2 -12 -10
-15 -9 -3 -16 -10 -16 -14 0 -4 -22 -46 -50 -94 -27 -47 -59 -108 -71 -134
-35 -74 -80 -185 -84 -203 -2 -8 -11 -40 -20 -70 -9 -30 -19 -63 -21 -74 -2
-11 -10 -49 -18 -85 -42 -190 -51 -457 -22 -645 15 -99 24 -150 26 -150 1 0 4
-11 7 -25 2 -14 6 -29 7 -35 2 -5 6 -23 10 -40 4 -16 10 -37 13 -45 3 -8 7
-21 9 -28 1 -8 6 -21 10 -30 4 -9 9 -25 10 -34 8 -37 133 -301 146 -306 5 -2
8 -8 8 -14 0 -14 90 -147 158 -233 92 -115 321 -335 350 -335 6 0 12 -4 14 -9
10 -27 295 -192 398 -231 97 -36 190 -68 190 -64 0 3 8 0 18 -5 11 -6 30 -12
43 -15 82 -19 128 -28 154 -32 17 -3 41 -7 55 -10 84 -16 355 -21 460 -9 30 3
71 8 90 10 53 6 99 15 165 32 33 8 65 16 70 17 8 2 76 22 135 41 3 1 14 5 25
10 64 26 86 34 90 34 14 1 247 129 295 162 30 22 64 45 74 52 41 26 186 150
186 158 0 5 7 9 15 9 8 0 15 4 15 8 0 5 24 33 53 63 28 30 66 72 82 93 17 22
35 44 41 50 5 6 31 43 57 81 26 39 54 78 61 89 49 64 198 407 209 481 1 11 5
25 9 30 6 10 19 69 24 110 1 11 3 20 4 20 3 0 9 37 15 85 3 25 8 65 11 90 9
75 4 425 -6 425 -1 0 -4 14 -6 30 -4 38 -16 108 -30 172 -2 12 -9 35 -15 50
-6 16 -10 30 -10 33 0 3 -4 23 -10 45 -6 22 -11 41 -10 43 1 1 -6 16 -15 33
-8 17 -17 38 -19 48 -6 31 -87 196 -138 281 -45 75 -122 186 -174 251 -31 38
-216 223 -258 257 -116 95 -344 232 -475 285 -25 10 -54 22 -65 27 -34 14
-110 42 -112 41 -2 0 -8 1 -15 3 -7 3 -26 8 -43 12 -16 4 -32 8 -35 9 -80 22
-162 36 -290 50 -56 6 -269 13 -273 9z m-92 -853 c7 -1 10 -194 10 -559 1
-520 2 -559 19 -587 57 -96 198 -110 279 -29 15 15 28 29 28 33 8 38 10 131
12 600 l2 545 167 0 167 1 -1 -573 c0 -607 0 -603 -49 -707 -34 -72 -132 -166
-216 -206 l-69 -34 0 -164 c1 -122 -2 -165 -11 -168 -21 -8 -297 -9 -313 -2
-13 6 -16 33 -15 169 l1 162 -51 26 c-27 14 -53 25 -57 24 -4 -1 -40 31 -80
71 -81 79 -120 147 -136 237 -9 49 -16 1146 -7 1160 2 4 284 5 320 1z m241
-1975 c23 -4 84 -58 99 -86 29 -56 26 -146 -7 -185 -69 -82 -141 -105 -225
-70 -48 20 -71 41 -94 87 -31 60 -19 160 23 201 22 21 78 59 78 52 0 -3 8 -1
18 5 14 9 44 8 108 -4z"/>
</g>
</svg>
