<?xml version="1.0" standalone="no"?>
<!DOCTYPE svg PUBLIC "-//W3C//DTD SVG 20010904//EN"
 "http://www.w3.org/TR/2001/REC-SVG-20010904/DTD/svg10.dtd">
<svg version="1.0" xmlns="http://www.w3.org/2000/svg"
 width="225.000000pt" height="225.000000pt" viewBox="0 0 225.000000 225.000000"
 preserveAspectRatio="xMidYMid meet">
<metadata>
Created by potrace 1.14, written by Peter Selinger 2001-2017
</metadata>
<g transform="translate(0.000000,225.000000) scale(0.100000,-0.100000)"
fill="#000000" stroke="none">
<path d="M1080 2232 c-23 -19 -24 -25 -27 -148 -1 -71 3 -141 8 -155 21 -54
98 -60 123 -10 19 38 16 286 -5 306 -25 26 -72 29 -99 7z"/>
<path d="M332 1917 c-41 -44 -31 -68 78 -177 108 -108 127 -116 174 -79 49 39
38 67 -74 179 -110 110 -137 121 -178 77z"/>
<path d="M1740 1840 c-112 -111 -124 -140 -74 -179 48 -38 67 -29 174 78 110
110 122 137 77 179 -44 41 -68 31 -177 -78z"/>
<path d="M995 1756 c-142 -33 -228 -80 -324 -177 -77 -76 -122 -148 -158 -251
-23 -64 -27 -88 -26 -198 0 -69 2 -132 5 -140 49 -174 130 -298 253 -386 289
-205 681 -148 892 131 269 354 109 862 -316 1005 -83 28 -242 35 -326 16z
m242 -141 c194 -45 350 -210 384 -409 43 -253 -122 -503 -378 -570 -67 -18
-204 -13 -268 9 -168 57 -295 192 -338 357 -20 78 -15 207 11 281 30 84 65
138 127 200 123 121 296 170 462 132z"/>
<path d="M42 1189 c-28 -11 -46 -50 -38 -83 11 -43 48 -53 181 -51 139 1 158
6 174 42 14 31 0 77 -27 89 -23 11 -263 13 -290 3z"/>
<path d="M1929 1188 c-14 -5 -32 -20 -39 -33 -12 -22 -11 -30 2 -59 20 -41 30
-43 193 -41 122 1 129 2 147 25 14 17 18 33 14 54 -12 56 -24 61 -164 62 -70
0 -139 -3 -153 -8z"/>
<path d="M409 510 c-109 -110 -120 -137 -76 -178 44 -41 68 -31 177 78 108
108 116 126 79 174 -14 18 -30 26 -51 26 -24 0 -47 -17 -129 -100z"/>
<path d="M1665 585 c-44 -43 -35 -65 75 -175 109 -108 127 -116 174 -79 18 14
26 30 26 51 0 25 -17 47 -100 129 -110 108 -132 118 -175 74z"/>
<path d="M1087 356 c-28 -21 -34 -57 -33 -190 2 -123 3 -129 26 -148 17 -14
33 -18 54 -14 56 12 61 24 62 169 1 139 -10 186 -44 188 -9 0 -24 2 -33 4 -8
1 -22 -3 -32 -9z"/>
</g>
</svg>
